# xmcd
#
# Track frame offsets:
# 150
# 12952
# 24145
# 36707
# 48170
# 62815
# 72925
# 81422
# 90145
# 103100
# 110050
# 120120
# 130117
# 141912
# 153962
# 166280
# 179435
# 192277
# 205860
# 218057
#
# Disc length: 3060 seconds
#
# Revision: 0
# Processed by: cddbd v1.4PL0 Copyright (c) Steve Scherf et al.
# Submitted via: Audion 3.0.2 (http://www.panic.com/audion/)
#
DISCID=0e0bf214
DTITLE=Various Artist - Best Select Library - Country
DYEAR=1900
DGENRE=
TTITLE0=Honey Don't/Carl Perkins
TTITLE1=Honky Tonk Angel/Dolly Parton
TTITLE2=High Noon/Frankie Lane
TTITLE3=Send Me the Pillow You Dream On/Hank Locklin
TTITLE4=Harper Valley PTA/Jeannie C. Riley
TTITLE5=Your Cheatin' Heart/Jerry Lee Lewis
TTITLE6=Rocky Top/Billie Jo Spears
TTITLE7=Blue is the Way I Feel/Conway Twitty
TTITLE8=Gentle on My Mind/Patti Page
TTITLE9=It's so Easy/Waylon Jennings
TTITLE10=I Can't Stop Loving You/Kitty Wells
TTITLE11=Walk on By (Live Version)/Leroy Van Dyke
TTITLE12=Oh, Lonesome Me/Don Gibson
TTITLE13=End of the World/Skeeter Davis
TTITLE14=I Walk the Line/Johnny Cash
TTITLE15=Rose Garden/Lynn Anderson
TTITLE16=You'll Never Walk Alone/Oak Ridge Boys
TTITLE17=Tennessee Waltz/Patti Page
TTITLE18=I Love You Because/Stonewall Jackson
TTITLE19=Night Life/Willie Nelson
EXTD=
EXTT0=
EXTT1=
EXTT2=
EXTT3=
EXTT4=
EXTT5=
EXTT6=
EXTT7=
EXTT8=
EXTT9=
EXTT10=
EXTT11=
EXTT12=
EXTT13=
EXTT14=
EXTT15=
EXTT16=
EXTT17=
EXTT18=
EXTT19=
PLAYORDER=
